<?xml version="1.0" encoding="UTF-8"?>
<!DOCTYPE svg PUBLIC "-//W3C//DTD SVG 1.1//EN" "http://www.w3.org/Graphics/SVG/1.1/DTD/svg11.dtd">
<svg xmlns="http://www.w3.org/2000/svg" version="1.1" width="85px" height="78px" style="shape-rendering:geometricPrecision; text-rendering:geometricPrecision; image-rendering:optimizeQuality; fill-rule:evenodd; clip-rule:evenodd" xmlns:xlink="http://www.w3.org/1999/xlink">
<g><path style="opacity:1" fill="#fefefd" d="M -0.5,-0.5 C 27.8333,-0.5 56.1667,-0.5 84.5,-0.5C 84.5,25.5 84.5,51.5 84.5,77.5C 56.1667,77.5 27.8333,77.5 -0.5,77.5C -0.5,51.5 -0.5,25.5 -0.5,-0.5 Z"/></g>
<g><path style="opacity:1" fill="#f3b440" d="M 34.5,16.5 C 35.5082,18.5439 36.5082,20.5439 37.5,22.5C 38.1667,22.5 38.5,22.8333 38.5,23.5C 38.281,24.675 38.6143,25.675 39.5,26.5C 41.261,25.9649 42.5943,24.9649 43.5,23.5C 43.8564,21.8102 44.8564,20.8102 46.5,20.5C 47.7095,20.0679 48.7095,19.4013 49.5,18.5C 49.8333,17.8333 50.1667,17.1667 50.5,16.5C 52.1667,16.5 53.8333,16.5 55.5,16.5C 55.5,17.8333 55.5,19.1667 55.5,20.5C 53.368,20.5544 52.0347,21.5544 51.5,23.5C 48.3368,25.4973 45.6702,27.9973 43.5,31C 45.6402,34.1221 47.6402,37.2887 49.5,40.5C 50.1667,41.8333 51.1667,42.8333 52.5,43.5C 52.8417,44.3382 53.5084,44.6716 54.5,44.5C 54.5774,45.7498 55.244,46.5831 56.5,47C 58.1341,47.4935 59.8008,47.6602 61.5,47.5C 61.5,48.5 61.5,49.5 61.5,50.5C 59.9894,52.4411 57.9894,52.9411 55.5,52C 51.5306,51.2003 48.5306,49.0336 46.5,45.5C 46.5,43.5 45.5,42.5 43.5,42.5C 43.6716,41.5084 43.3382,40.8417 42.5,40.5C 41.6516,38.4931 40.3183,37.3265 38.5,37C 35.9644,40.033 33.6311,43.1996 31.5,46.5C 27.8743,49.0948 25.2076,52.4281 23.5,56.5C 22.1667,56.8333 20.8333,57.1667 19.5,57.5C 20.0115,54.9785 21.0115,52.6451 22.5,50.5C 22.5,50.1667 22.5,49.8333 22.5,49.5C 24.7409,48.7002 25.7409,47.0336 25.5,44.5C 27.1667,42.5 28.8333,40.5 30.5,38.5C 32.543,37.4206 33.8763,35.754 34.5,33.5C 35.5497,29.6415 34.5497,26.3082 31.5,23.5C 30.7814,21.2362 30.448,18.9029 30.5,16.5C 31.8333,16.5 33.1667,16.5 34.5,16.5 Z"/></g>
<g><path style="opacity:1" fill="#f7c874" d="M 50.5,16.5 C 52.3635,15.2072 54.3635,15.2072 56.5,16.5C 57.9321,18.297 57.5988,19.6303 55.5,20.5C 55.5,19.1667 55.5,17.8333 55.5,16.5C 53.8333,16.5 52.1667,16.5 50.5,16.5 Z"/></g>
<g><path style="opacity:1" fill="#f7c976" d="M 34.5,16.5 C 36.9754,17.6874 37.9754,19.6874 37.5,22.5C 36.5082,20.5439 35.5082,18.5439 34.5,16.5 Z"/></g>
<g><path style="opacity:1" fill="#fae1b3" d="M 49.5,18.5 C 48.7095,19.4013 47.7095,20.0679 46.5,20.5C 46.8212,18.9519 47.8212,18.2852 49.5,18.5 Z"/></g>
<g><path style="opacity:1" fill="#fadba3" d="M 34.5,16.5 C 33.1667,16.5 31.8333,16.5 30.5,16.5C 30.448,18.9029 30.7814,21.2362 31.5,23.5C 30.8826,23.3893 30.3826,23.056 30,22.5C 29.5034,20.1902 29.3367,17.8568 29.5,15.5C 31.4147,15.2155 33.0813,15.5489 34.5,16.5 Z"/></g>
<g><path style="opacity:1" fill="#f8cd80" d="M 55.5,20.5 C 54.5637,21.9744 53.2303,22.9744 51.5,23.5C 52.0347,21.5544 53.368,20.5544 55.5,20.5 Z"/></g>
<g><path style="opacity:1" fill="#f9dba4" d="M 38.5,23.5 C 40.0992,24.562 41.7659,24.562 43.5,23.5C 42.5943,24.9649 41.261,25.9649 39.5,26.5C 38.6143,25.675 38.281,24.675 38.5,23.5 Z"/></g>
<g><path style="opacity:1" fill="#f9d697" d="M 34.5,33.5 C 33.8763,35.754 32.543,37.4206 30.5,38.5C 31.1355,36.2054 32.4689,34.5387 34.5,33.5 Z"/></g>
<g><path style="opacity:1" fill="#fadeaa" d="M 49.5,40.5 C 51.5,40.5 52.5,41.5 52.5,43.5C 51.1667,42.8333 50.1667,41.8333 49.5,40.5 Z"/></g>
<g><path style="opacity:1" fill="#f9d28e" d="M 43.5,42.5 C 45.5,42.5 46.5,43.5 46.5,45.5C 45.1667,44.8333 44.1667,43.8333 43.5,42.5 Z"/></g>
<g><path style="opacity:1" fill="#fadba5" d="M 25.5,44.5 C 25.7409,47.0336 24.7409,48.7002 22.5,49.5C 22.7769,47.2719 23.7769,45.6053 25.5,44.5 Z"/></g>
<g><path style="opacity:1" fill="#fbe2b7" d="M 42.5,40.5 C 40.5648,39.8505 38.5648,39.5172 36.5,39.5C 36.031,42.6433 34.3644,44.9767 31.5,46.5C 33.6311,43.1996 35.9644,40.033 38.5,37C 40.3183,37.3265 41.6516,38.4931 42.5,40.5 Z"/></g>
<g><path style="opacity:1" fill="#f9d89c" d="M 54.5,44.5 C 56.9128,46.0507 59.5794,46.7174 62.5,46.5C 62.7678,48.099 62.4345,49.4324 61.5,50.5C 61.5,49.5 61.5,48.5 61.5,47.5C 59.8008,47.6602 58.1341,47.4935 56.5,47C 55.244,46.5831 54.5774,45.7498 54.5,44.5 Z"/></g>
<g><path style="opacity:1" fill="#f7d087" d="M 22.5,50.5 C 21.0115,52.6451 20.0115,54.9785 19.5,57.5C 18.5655,56.4324 18.2322,55.099 18.5,53.5C 19.6366,52.2112 20.9699,51.2112 22.5,50.5 Z"/></g>
<g><path style="opacity:1" fill="#fbe7c2" d="M 18.5,53.5 C 18.2322,55.099 18.5655,56.4324 19.5,57.5C 20.8333,57.1667 22.1667,56.8333 23.5,56.5C 22.0101,58.2798 20.0101,58.9465 17.5,58.5C 17.2155,56.5853 17.5489,54.9187 18.5,53.5 Z"/></g>
</svg>
